HIERARCHY
ROOT hip
{
  OFFSET 0 0 0
  CHANNELS 6 Xposition Yposition Zposition Zrotation Yrotation Xrotation
  JOINT abdomen
  {
    OFFSET 0 20.6881 -0.73152
    CHANNELS 3 Zrotation Xrotation Yrotation
    JOINT chest
    {
      OFFSET 0 11.7043 -0.48768
      CHANNELS 3 Zrotation Xrotation Yrotation
      JOINT neck
      {
        OFFSET 0 22.1894 -2.19456
        CHANNELS 3 Zrotation Xrotation Yrotation
        JOINT head
        {
          OFFSET -0.24384 7.07133 1.2192
          CHANNELS 3 Zrotation Xrotation Yrotation
          JOINT leftEye
          {
            OFFSET 4.14528 8.04674 8.04672
            CHANNELS 3 Zrotation Xrotation Yrotation
            End Site
            {
              OFFSET 1 0 0
            }
          }
          JOINT rightEye
          {
            OFFSET -3.6576 8.04674 8.04672
            CHANNELS 3 Zrotation Xrotation Yrotation
            End Site
            {
              OFFSET 1 0 0
            }
          }
        }
      }
      JOINT rCollar
      {
        OFFSET -2.68224 19.2634 -4.8768
        CHANNELS 3 Zrotation Xrotation Yrotation
        JOINT rShldr
        {
          OFFSET -8.77824 -1.95073 1.46304
          CHANNELS 3 Zrotation Xrotation Yrotation
          JOINT rForeArm
          {
            OFFSET -28.1742 -1.7115 0.48768
            CHANNELS 3 Zrotation Xrotation Yrotation
            JOINT rHand
            {
              OFFSET -22.5879 0.773209 7.07136
              CHANNELS 3 Zrotation Xrotation Yrotation
              JOINT rThumb1
              {
                OFFSET -1.2192 -0.487915 3.41376
                CHANNELS 3 Zrotation Xrotation Yrotation
                JOINT rThumb2
                {
                  OFFSET -3.37035 -0.52449 3.41376
                  CHANNELS 3 Zrotation Xrotation Yrotation
                  End Site
                  {
                    OFFSET -1.78271 -1.18214 1.43049
                  }
                }
              }
              JOINT rIndex1
              {
                OFFSET -7.75947 0.938293 5.60832
                CHANNELS 3 Zrotation Xrotation Yrotation
                JOINT rIndex2
                {
                  OFFSET -2.54057 -0.884171 1.56538
                  CHANNELS 3 Zrotation Xrotation Yrotation
                  End Site
                  {
                    OFFSET -1.62519 -0.234802 1.16502
                  }
                }
              }
              JOINT rMid1
              {
                OFFSET -8.24714 1.18213 3.41376
                CHANNELS 3 Zrotation Xrotation Yrotation
                JOINT rMid2
                {
                  OFFSET -3.10165 -0.590103 1.0647
                  CHANNELS 3 Zrotation Xrotation Yrotation
                  End Site
                  {
                    OFFSET -2.48547 -0.328903 0.83742
                  }
                }
              }
              JOINT rRing1
              {
                OFFSET -8.82822 0.546677 1.51678
                CHANNELS 3 Zrotation Xrotation Yrotation
                JOINT rRing2
                {
                  OFFSET -2.60934 -0.819778 -0.0198488
                  CHANNELS 3 Zrotation Xrotation Yrotation
                  End Site
                  {
                    OFFSET -2.33842 -0.294052 0.168128
                  }
                }
              }
              JOINT rPinky1
              {
                OFFSET -8.27202 -0.0477905 -0.4584
                CHANNELS 3 Zrotation Xrotation Yrotation
                JOINT rPinky2
                {
                  OFFSET -1.82734 -0.647385 -0.700984
                  CHANNELS 3 Zrotation Xrotation Yrotation
                  End Site
                  {
                    OFFSET -1.69225 -0.51767 -0.607171
                  }
                }
              }
            }
          }
        }
      }
      JOINT lCollar
      {
        OFFSET 2.68224 19.2634 -4.8768
        CHANNELS 3 Zrotation Xrotation Yrotation
        JOINT lShldr
        {
          OFFSET 8.77824 -1.95073 1.46304
          CHANNELS 3 Zrotation Xrotation Yrotation
          JOINT lForeArm
          {
            OFFSET 28.1742 -1.7115 0.48768
            CHANNELS 3 Zrotation Xrotation Yrotation
            JOINT lHand
            {
              OFFSET 22.5879 0.773209 7.07136
              CHANNELS 3 Zrotation Xrotation Yrotation
              JOINT lThumb1
              {
                OFFSET 1.2192 -0.487915 3.41376
                CHANNELS 3 Zrotation Xrotation Yrotation
                JOINT lThumb2
                {
                  OFFSET 3.37035 -0.52449 3.41376
                  CHANNELS 3 Zrotation Xrotation Yrotation
                  End Site
                  {
                    OFFSET 1.78271 -1.18214 1.43049
                  }
                }
              }
              JOINT lIndex1
              {
                OFFSET 7.75947 0.938293 5.60832
                CHANNELS 3 Zrotation Xrotation Yrotation
                JOINT lIndex2
                {
                  OFFSET 2.54057 -0.884171 1.56538
                  CHANNELS 3 Zrotation Xrotation Yrotation
                  End Site
                  {
                    OFFSET 1.62519 -0.234802 1.16502
                  }
                }
              }
              JOINT lMid1
              {
                OFFSET 8.24714 1.18213 3.41376
                CHANNELS 3 Zrotation Xrotation Yrotation
                JOINT lMid2
                {
                  OFFSET 3.10165 -0.590103 1.0647
                  CHANNELS 3 Zrotation Xrotation Yrotation
                  End Site
                  {
                    OFFSET 2.48547 -0.328903 0.83742
                  }
                }
              }
              JOINT lRing1
              {
                OFFSET 8.82822 0.546677 1.51678
                CHANNELS 3 Zrotation Xrotation Yrotation
                JOINT lRing2
                {
                  OFFSET 2.60934 -0.819778 -0.0198488
                  CHANNELS 3 Zrotation Xrotation Yrotation
                  End Site
                  {
                    OFFSET 2.33842 -0.294052 0.168128
                  }
                }
              }
              JOINT lPinky1
              {
                OFFSET 8.27202 -0.0477905 -0.4584
                CHANNELS 3 Zrotation Xrotation Yrotation
                JOINT lPinky2
                {
                  OFFSET 1.82734 -0.647385 -0.700984
                  CHANNELS 3 Zrotation Xrotation Yrotation
                  End Site
                  {
                    OFFSET 1.69225 -0.51767 -0.607171
                  }
                }
              }
            }
          }
        }
      }
    }
  }
  JOINT rButtock
  {
    OFFSET -8.77824 4.35084 1.2192
    CHANNELS 3 Zrotation Xrotation Yrotation
    JOINT rThigh
    {
      OFFSET 0 -1.70687 -2.19456
      CHANNELS 3 Zrotation Xrotation Yrotation
      JOINT rShin
      {
        OFFSET 0 -36.8199 0.73152
        CHANNELS 3 Zrotation Xrotation Yrotation
        JOINT rFoot
        {
          OFFSET 0.73152 -45.1104 -5.12064
          CHANNELS 3 Zrotation Xrotation Yrotation
          End Site
          {
            OFFSET -1.1221 -3.69964 12.103
          }
        }
      }
    }
  }
  JOINT lButtock
  {
    OFFSET 8.77824 4.35084 1.2192
    CHANNELS 3 Zrotation Xrotation Yrotation
    JOINT lThigh
    {
      OFFSET 0 -1.70687 -2.19456
      CHANNELS 3 Zrotation Xrotation Yrotation
      JOINT lShin
      {
        OFFSET 0 -36.8199 0.73152
        CHANNELS 3 Zrotation Xrotation Yrotation
        JOINT lFoot
        {
          OFFSET -0.73152 -45.1104 -5.12064
          CHANNELS 3 Zrotation Xrotation Yrotation
          End Site
          {
            OFFSET 1.1221 -3.69964 12.103
          }
        }
      }
    }
  }
}
MOTION
Frames:	4
Frame Time:	0.00833333
-181.514 84.0179 -109.91 0.0 0.0 0.0 -1.65549 -0.00357551 -0.0452716 -0.457092 0.000155158 -0.0791626 4.22062e-14 7.95139e-16 -3.72721e-16 1.27082e-13 3.18055e-15 -1.07157e-15 -0.0 0.0 0.0 -0.0 0.0 0.0 2.13195e-14 7.7262e-17 0.0 4.47735e-13 1.88845e-15 -1.39149e-15 7.69555e-12 -2.24209e-12 -1.62208e-13 8.80591e-11 2.61717e-12 -5.53417e-13 2.07721e-10 8.10769e-13 -1.52667e-12 3.58711e-10 1.40581e-12 -2.64702e-12 2.07724e-10 8.09849e-13 -1.53621e-12 7.73091 5.47488 0.417314 2.07719e-10 8.09948e-13 -1.52349e-12 2.90554 0.965183 0.102902 2.07725e-10 8.10942e-13 -1.52826e-12 10.2786 0.731801 0.0259123 2.07714e-10 8.1462e-13 -1.52031e-12 2.22167 -0.733487 -0.20892 2.11224e-14 7.86209e-17 -2.98177e-16 4.45475e-13 2.08724e-15 -2.78299e-15 7.69431e-12 2.35679e-12 -1.145e-13 8.80518e-11 -1.99247e-12 -5.66139e-13 2.07711e-10 7.86805e-13 -1.52667e-12 3.58717e-10 1.35492e-12 -2.63429e-12 2.07709e-10 7.84404e-13 -1.51712e-12 -7.73091 5.47488 -0.417314 2.07712e-10 7.86591e-13 -1.52031e-12 -2.90554 0.965183 -0.102902 2.07712e-10 7.86293e-13 -1.52349e-12 -10.2786 0.731801 -0.0259123 2.07723e-10 7.91561e-13 -1.53303e-12 -2.22167 -0.733487 0.20892 -2.03217e-16 0.0 -3.88251e-19 -0.80381 -1.9234 -0.00371075 -0.00881584 -2.07862 -0.0725481 -0.451644 3.99779 0.131374 2.03217e-16 0.0 3.88251e-19 -1.71799 -6.77982 0.164492 -0.00322583 6.71835 -0.08405 0.482528 0.0573269 -0.0559455
-179.557 81.7972 -114.755 -95.7723 86.5461 -79.8076 -2.52617 5.98919 -1.90245 1.11977 0.0016066 -0.585575 -0.0914638 2.85526 0.641334 -0.601117 -11.3757 1.18161 -0.0 0.0 0.0 -0.0 0.0 0.0 -4.48579e-14 1.14535e-13 -2.16244e-14 19.7729 14.2801 -4.25932 -7.40144 -4.38628 10.2349 0.00072512 -0.602156 -0.0846111 -1.29145e-09 3.44646e-10 4.07042e-11 -2.22948e-09 5.92963e-10 7.62876e-11 -1.29145e-09 3.44644e-10 4.06945e-11 7.73091 5.47488 0.417314 -1.29145e-09 3.44643e-10 4.07075e-11 2.90554 0.965183 0.102902 -1.29145e-09 3.44644e-10 4.07028e-11 10.2786 0.731801 0.0259123 -1.29146e-09 3.44648e-10 4.07105e-11 2.22167 -0.733487 -0.20892 -4.50338e-14 1.14535e-13 -2.19284e-14 -18.857 6.62155 0.3946 13.4589 -10.5246 -14.0491 -0.00729579 -1.89557 0.265879 -1.58727e-09 7.22572e-10 4.45118e-09 -2.77144e-09 1.25002e-09 7.68451e-09 -1.58727e-09 7.2257e-10 4.45119e-09 -7.73091 5.47488 -0.417314 -1.58727e-09 7.22571e-10 4.45118e-09 -2.90554 0.965183 -0.102902 -1.58727e-09 7.2257e-10 4.45118e-09 -10.2786 0.731801 -0.0259123 -1.58726e-09 7.22574e-10 4.45117e-09 -2.22167 -0.733487 0.20892 -2.03217e-16 0.0 -3.88251e-19 -0.538319 -9.32611 3.23692 -0.0173561 5.29031 0.0213567 -0.146093 -1.3712 2.46739 2.03217e-16 0.0 3.88251e-19 -0.163465 -8.63573 -1.19409 -0.0299387 11.9657 -0.215268 0.115344 -3.09828 -3.62407
-178.292 81.8692 -113.59 -56.546 84.7891 -42.9296 -3.03413 12.3072 -3.92527 2.78775 0.00459934 -1.1193 -0.263672 5.87876 1.32658 -0.655019 -23.3971 2.61123 -0.0 0.0 0.0 -0.0 0.0 0.0 -1.13044e-13 2.14102e-13 -4.28474e-14 43.2774 29.1067 -9.72409 -13.5495 -8.5609 21.247 -0.000456407 -1.2475 -0.175322 -2.91532e-09 7.2273e-10 7.30261e-11 -5.03291e-09 1.24355e-09 1.38483e-10 -2.91531e-09 7.22727e-10 7.30164e-11 7.73091 5.47488 0.417314 -2.91532e-09 7.22725e-10 7.30297e-11 2.90554 0.965183 0.102902 -2.91531e-09 7.22726e-10 7.3025e-11 10.2786 0.731801 0.0259123 -2.91532e-09 7.2273e-10 7.30325e-11 2.22167 -0.733487 -0.20892 -1.13199e-13 2.14099e-13 -4.31611e-14 -38.8936 13.6115 0.825216 22.0198 -19.4858 -30.3 0.00415196 -3.8933 0.547075 -3.54022e-09 1.5017e-09 9.23268e-09 -6.17664e-09 2.59788e-09 1.59392e-08 -3.54022e-09 1.5017e-09 9.23269e-09 -7.73091 5.47488 -0.417314 -3.54022e-09 1.5017e-09 9.23269e-09 -2.90554 0.965183 -0.102902 -3.54022e-09 1.5017e-09 9.23268e-09 -10.2786 0.731801 -0.0259123 -3.54021e-09 1.5017e-09 9.23268e-09 -2.22167 -0.733487 0.20892 -2.03217e-16 0.0 -3.88251e-19 0.688445 -17.0586 6.86665 -0.0533586 13.1119 0.123369 0.664468 -7.03871 5.00788 2.03217e-16 0.0 3.88251e-19 1.38401 -10.6185 -2.65026 -0.0306955 17.524 -0.361683 -0.700504 -6.41046 -7.41082
-177.371 81.8614 -112.855 -46.5168 83.8018 -33.9199 -3.05352 17.8963 -5.87061 4.27358 0.00450798 -1.5984 -0.467951 8.56147 1.94328 -0.149509 -34.0628 4.1961 -0.0 0.0 0.0 -0.0 0.0 0.0 -1.77213e-13 3.43451e-13 -6.48733e-14 67.4517 41.7252 -16.6973 -17.6759 -11.4796 31.3084 -0.00316225 -1.80645 -0.253945 -4.2898e-09 1.03232e-09 1.25166e-10 -7.40587e-09 1.77608e-09 2.34157e-10 -4.2898e-09 1.03231e-09 1.25156e-10 7.73091 5.47488 0.417314 -4.2898e-09 1.03231e-09 1.25169e-10 2.90554 0.965183 0.102902 -4.28979e-09 1.03231e-09 1.25165e-10 10.2786 0.731801 0.0259123 -4.28981e-09 1.03231e-09 1.25172e-10 2.22167 -0.733487 -0.20892 -1.77346e-13 3.43447e-13 -6.51889e-14 -56.8592 19.8607 1.25028 25.3527 -23.7758 -46.3014 0.0311111 -5.68623 0.801144 -5.17723e-09 2.16614e-09 1.33566e-08 -9.03175e-09 3.74736e-09 2.30588e-08 -5.17723e-09 2.16614e-09 1.33566e-08 -7.73091 5.47488 -0.417314 -5.17723e-09 2.16614e-09 1.33566e-08 -2.90554 0.965183 -0.102902 -5.17723e-09 2.16614e-09 1.33566e-08 -10.2786 0.731801 -0.0259123 -5.17722e-09 2.16614e-09 1.33566e-08 -2.22167 -0.733487 0.20892 -2.03217e-16 0.0 -3.88251e-19 2.69393 -23.8166 10.492 -0.109904 20.028 0.222238 1.79707 -12.0177 7.29875 2.03217e-16 0.0 3.88251e-19 2.6759 -12.3244 -3.95972 -0.00543031 22.46 -0.502978 -1.80363 -9.26132 -10.888
